<svg id="flat" height="512" viewBox="0 0 512 512" width="512" xmlns="http://www.w3.org/2000/svg"><path d="m146.252 308.784-37.468-103.036h-25.568l-37.468 103.036 15.036 5.468 35.216-96.842 35.216 96.842z" fill="#f78e00"/><path d="m466.252 308.784-37.468-103.036h-25.568l-37.468 103.036 15.036 5.468 35.216-96.842 35.216 96.842z" fill="#f78e00"/><path d="m216 424 16-32v-344a24 24 0 0 1 24-24 24 24 0 0 1 24 24v344l16 32z" fill="#ffb401"/><path d="m152 304h-112v.00006a55.99994 55.99994 0 0 0 55.99994 55.99994h.00012a55.99994 55.99994 0 0 0 55.99994-55.99994z" fill="#ffc431"/><path d="m298.06182 175.80409 21.05446 18.42266a88 88 0 0 0 57.94841 21.77325h110.93531v-32h-52.8a112 112 0 0 1 -98.82353-59.29412l-9.78826-18.353a79.99992 79.99992 0 0 0 -70.58816-42.35288h-.00005a79.99992 79.99992 0 0 0 -70.58816 42.3529l-9.78826 18.353a112 112 0 0 1 -98.82358 59.2941h-52.8v32h110.93531a88 88 0 0 0 57.94841-21.77325l21.05446-18.42266a63.87472 63.87472 0 0 1 42.06182-15.80409 63.87472 63.87472 0 0 1 42.06182 15.80409z" fill="#ffc431"/><circle cx="256" cy="112" fill="#ffd873" r="16"/><path d="m344 456h-176l24-32h128z" fill="#ffc431"/><path d="m128 456h256v32h-256z" fill="#ffb401"/><path d="m472 304h-112v.00006a55.99994 55.99994 0 0 0 55.99994 55.99994h.00012a55.99994 55.99994 0 0 0 55.99994-55.99994z" fill="#ffc431"/></svg>